<svg width="16" height="21" viewBox="0 0 16 21" fill="none" xmlns="http://www.w3.org/2000/svg">
<path fill-rule="evenodd" clip-rule="evenodd" d="M7.38462 11.2834V13.7449C7.38462 14.0848 7.66013 14.3603 8 14.3603C8.33987 14.3603 8.61539 14.0848 8.61539 13.7449V11.2834H11.0769C11.4168 11.2834 11.6923 11.0078 11.6923 10.668C11.6923 10.3281 11.4168 10.0526 11.0769 10.0526H8.61539V7.59105C8.61539 7.25118 8.33987 6.97566 8 6.97566C7.66013 6.97566 7.38462 7.25118 7.38462 7.59105V10.0526H4.92308C4.58321 10.0526 4.30769 10.3281 4.30769 10.668C4.30769 11.0078 4.58321 11.2834 4.92308 11.2834H7.38462ZM8 2.66797C12.4183 2.66797 16 6.24969 16 10.668C16 15.0862 12.4183 18.668 8 18.668C3.58172 18.668 0 15.0862 0 10.668C0 6.24969 3.58172 2.66797 8 2.66797Z" fill="#87899F"/>
</svg>
