<svg width="16" height="20" viewBox="0 0 16 20" fill="none" xmlns="http://www.w3.org/2000/svg">
<path d="M1.55455 12.5625C1.13997 13.1257 0.947045 13.8218 1.01252 14.518C1.07799 15.2143 1.39729 15.8622 1.90959 16.3383C2.4219 16.8143 3.09142 17.0853 3.79062 17.0996C4.48983 17.1139 5.16987 16.8705 5.70122 16.4158C4.7106 16.2454 3.79102 15.7902 3.05469 15.106C2.31835 14.4217 1.79711 13.538 1.55455 12.5625Z" fill="#87899F"/>
<path d="M3.41409 8.45703C2.68566 9.26282 2.29198 10.3161 2.31332 11.4021C2.33467 12.4881 2.76943 13.5251 3.52897 14.3017C4.2885 15.0782 5.31562 15.5358 6.40091 15.5812C7.4862 15.6266 8.54793 15.2563 9.36965 14.5459C7.79275 14.4671 6.30362 13.7963 5.19962 12.6676C4.09562 11.5389 3.458 10.0353 3.41409 8.45703Z" fill="#87899F"/>
<path d="M9.68356 2.89063C10.7484 2.89063 11.7893 3.20622 12.6748 3.79752C13.5604 4.38883 14.2508 5.22933 14.6589 6.21284C15.067 7.19634 15.1744 8.27874 14.9677 9.32328C14.7609 10.3678 14.2492 11.3277 13.4972 12.0815C12.7452 12.8354 11.7866 13.3495 10.7426 13.5588C9.69856 13.7682 8.61591 13.6634 7.63139 13.2577C6.64688 12.8521 5.80468 12.1637 5.21118 11.2797C4.61769 10.3956 4.29953 9.35543 4.29689 8.29062C4.29514 7.58212 4.43317 6.88022 4.70309 6.22514C4.97301 5.57006 5.36951 4.97467 5.86989 4.47305C6.37026 3.97144 6.96467 3.57347 7.61909 3.30193C8.2735 3.03039 8.97505 2.89062 9.68356 2.89063Z" fill="#87899F"/>
</svg>
