<svg width="16" height="21" viewBox="0 0 16 21" fill="none" xmlns="http://www.w3.org/2000/svg">
<path d="M0 5.66797C0 4.83954 0.671573 4.16797 1.5 4.16797C2.32843 4.16797 3 4.83954 3 5.66797C3 6.4964 2.32843 7.16797 1.5 7.16797C0.671573 7.16797 0 6.4964 0 5.66797Z" fill="#87899F"/>
<path d="M5 5.66797C5 4.83954 5.67157 4.16797 6.5 4.16797H14.5C15.3284 4.16797 16 4.83954 16 5.66797C16 6.4964 15.3284 7.16797 14.5 7.16797H6.5C5.67157 7.16797 5 6.4964 5 5.66797Z" fill="#87899F"/>
<path d="M0 10.668C0 9.83954 0.671573 9.16797 1.5 9.16797C2.32843 9.16797 3 9.83954 3 10.668C3 11.4964 2.32843 12.168 1.5 12.168C0.671573 12.168 0 11.4964 0 10.668Z" fill="#87899F"/>
<path d="M5 10.668C5 9.83954 5.67157 9.16797 6.5 9.16797H14.5C15.3284 9.16797 16 9.83954 16 10.668C16 11.4964 15.3284 12.168 14.5 12.168H6.5C5.67157 12.168 5 11.4964 5 10.668Z" fill="#87899F"/>
<path d="M0 15.668C0 14.8395 0.671573 14.168 1.5 14.168C2.32843 14.168 3 14.8395 3 15.668C3 16.4964 2.32843 17.168 1.5 17.168C0.671573 17.168 0 16.4964 0 15.668Z" fill="#87899F"/>
<path d="M5 15.668C5 14.8395 5.67157 14.168 6.5 14.168H14.5C15.3284 14.168 16 14.8395 16 15.668C16 16.4964 15.3284 17.168 14.5 17.168H6.5C5.67157 17.168 5 16.4964 5 15.668Z" fill="#87899F"/>
</svg>
