<svg width="16" height="20" viewBox="0 0 16 20" fill="none" xmlns="http://www.w3.org/2000/svg">
<path d="M7.98145 2.75C8.27091 2.75007 8.54766 2.89921 8.71484 3.14941L8.7793 3.2627L10.3779 6.61523L10.5488 6.97363L10.9404 7.03418L14.4893 7.58105L14.501 7.58203L14.5117 7.58398C14.8152 7.62149 15.0881 7.83483 15.21 8.20117C15.3 8.53935 15.2315 8.86998 15.0596 9.09863L14.9785 9.19141L14.9707 9.19922L12.3965 11.8008L12.1279 12.0723L12.1895 12.4492L12.7881 16.1094V16.1104C12.8472 16.4963 12.701 16.8494 12.418 17.0703L12.4053 17.0801L12.3926 17.0908C12.2727 17.193 12.104 17.25 11.9297 17.25C11.8604 17.25 11.7699 17.2337 11.6523 17.1855L11.5264 17.126L8.36621 15.3916L8.00391 15.1924L7.64258 15.3926L4.49316 17.1357L4.48633 17.1396C4.20321 17.3002 3.85655 17.2755 3.59375 17.0703C3.31267 16.8508 3.16666 16.501 3.22266 16.1182L3.82227 12.4492L3.88379 12.0723L3.61426 11.8008L1.04785 9.20703C0.774071 8.92206 0.68635 8.55473 0.795898 8.21289L0.796875 8.21191C0.92053 7.82648 1.20554 7.61698 1.45801 7.58301L1.46582 7.58203L1.47266 7.58105L5.02148 7.03418L5.41406 6.97363L5.58496 6.61523L7.17188 3.28418C7.35708 2.93036 7.66643 2.75 7.98145 2.75Z" stroke="#87899F" stroke-width="1.5"/>
</svg>
